Coordinates
version=1
nRows=12
nColumns=33
inDegrees=yes

Units are S.I. units (second, meters, Newtons, ...)
Angles are in degrees.

endheader
time	ground_thorax_rot_x	ground_thorax_rot_y	ground_thorax_rot_z	ground_thorax_tx	ground_thorax_ty	ground_thorax_tz	clav_prot_r	clav_elev_r	scapula_abduction_r	scapula_elevation_r	scapula_upward_rot_r	scapula_winging_r	shoulder_elv_r	plane_of_elev_r	axial_rot_r	elbow_flexion_r	pro_sup_r	wrist_flex_r	wrist_dev_r	clav_prot_l	clav_elev_l	scapula_abduction_l	scapula_elevation_l	scapula_upward_rot_l	scapula_winging_l	shoulder_elv_l	plane_of_elev_l	axial_rot_l	elbow_flexion_l	pro_sup_l	wrist_flex_l	wrist_dev_l
      5.54000000	    -38.95027111	     -6.93048912	     14.36617038	   -213.46785661	    838.72500932	      9.52128286	      5.86569830	    -45.00000000	     38.72889329	    -45.00000000	    -29.44087041	   2418.13483651	  -2808.08922712	     32.92389071	     63.35341101	    372.37471030	     11.88916432	     19.80900236	      7.27478970	     15.80844912	     37.79832089	    -38.98303880	    -45.00000000	    -45.00000000	   -634.95972235	   1706.20828600	    136.16306519	    162.80801912	    742.62538299	    148.97008227	     -1.40667178	     -9.56021999
      5.55000000	    -38.92751290	     -7.17702759	     14.48704476	   -210.77798345	    837.34281531	      9.44729985	      6.00228193	    -45.00000000	     38.95072326	    -45.00000000	    -29.01927556	   2418.22317947	  -2808.26355185	     32.88747080	     63.38770171	    372.31309552	     10.39930588	     19.76724929	      7.67251338	     15.67810625	     37.74337829	    -39.05349551	    -45.00000000	    -45.00000000	   -634.96239471	   1706.20002870	    135.91063953	    162.97014971	    742.66386291	    150.37400772	     -1.45811492	     -9.49839188
      5.56000000	    -38.90656756	     -7.30531826	     14.58725127	   -207.94809854	    835.84388326	      9.36737795	      6.15198705	    -45.00000000	     39.11307438	    -45.00000000	    -28.49861700	   2418.34041612	  -2808.51596148	     32.81933482	     63.36240814	    372.07614274	      9.07120732	     19.65405717	      8.00281788	     15.39007283	     37.78499181	    -39.21177874	    -45.00000000	    -44.87833659	   -635.07761103	   1706.16116487	    135.74103794	    162.92102863	    742.60684266	    151.56256940	     -1.60314415	     -9.51307630
      5.57000000	    -38.98508451	     -7.46487997	     14.54119650	   -204.98029175	    834.22883970	      9.28104870	      5.80311501	    -45.00000000	     39.14636510	    -45.00000000	    -27.86235180	   2418.62098050	  -2808.71432038	     32.67081601	     63.53347720	    372.10206941	      7.68487778	     19.60032849	      8.51799676	     15.88323295	     37.98674645	    -39.38264035	    -45.00000000	    -44.62598043	   -635.32431164	   1706.02706896	    135.83260010	    163.07626768	    742.59043963	    152.83918254	     -1.63527471	     -9.44859428
      5.58000000	    -39.01438419	     -7.60672734	     14.55040918	   -201.87468068	    832.49931001	      9.18806278	      5.66795774	    -45.00000000	     39.20529441	    -45.00000000	    -27.27551417	   2418.82998977	  -2808.90735247	     32.57854298	     63.67626088	    372.04431794	      6.34803362	     19.49472417	      8.96174302	     16.06756127	     38.12184978	    -39.50027004	    -45.00000000	    -44.28826603	   -635.56617850	   1705.87713690	    135.85885994	    163.14519049	    742.60516801	    154.02191412	     -1.72715414	     -9.41536643
      5.59000000	    -39.03764782	     -7.69849363	     14.57342696	   -198.63563026	    830.65808044	      9.08877531	      5.49764235	    -45.00000000	     39.26973596	    -45.00000000	    -26.68628998	   2419.03521208	  -2809.12889128	     32.45153777	     63.84158535	    371.96821209	      5.10389170	     19.36146802	      9.40636107	     16.26218186	     38.28631236	    -39.66984385	    -45.00000000	    -43.83259392	   -635.82705678	   1705.65263242	    135.91746562	    163.09961502	    742.62859690	    155.13398760	     -1.81979171	     -9.38594413
      5.60000000	    -39.12241038	     -7.90939748	     14.56864251	   -195.26370831	    828.70712259	      8.98435169	      5.73130920	    -45.00000000	     39.49226430	    -45.00000000	    -26.27066562	   2419.22141730	  -2809.52868689	     32.38924590	     63.84492863	    371.84678557	      4.10759742	     19.21276388	      9.69251792	     15.92811772	     38.34892170	    -39.67462292	    -45.00000000	    -43.36557642	   -635.77327877	   1705.52732381	    135.62435402	    162.82857290	    742.53308835	    155.95794289	     -2.03302812	     -9.46822348
      5.61000000	    -39.15741481	     -8.04593413	     14.59701754	   -191.76762186	    826.65107931	      8.87675879	      5.32716832	    -45.00000000	     39.44328832	    -45.00000000	    -25.61656756	   2419.49409835	  -2809.72773373	     32.22696839	     64.08000418	    371.81808839	      3.17235897	     19.06302388	     10.16264158	     16.47647247	     38.57456586	    -39.91279863	    -45.00000000	    -43.08324056	   -636.22123990	   1705.28875779	    135.84258491	    163.04446585	    742.52519729	    156.79821808	     -2.09567382	     -9.44675120
      5.62000000	    -39.22543379	     -8.18682727	     14.61874023	   -188.15293264	    824.49551691	      8.76855270	      5.12434803	    -45.00000000	     39.46577941	    -45.00000000	    -25.03823984	   2419.71374813	  -2810.06453226	     32.10321668	     64.30373710	    371.72072537	      2.33778480	     18.88218904	     10.53246688	     16.69432509	     38.67334200	    -40.11055994	    -45.00000000	    -42.77122599	   -636.58136915	   1705.11954584	    135.93103754	    163.23304376	    742.46248357	    157.48462715	     -2.26046298	     -9.50049720
      5.63000000	    -39.26147879	     -8.46254626	     14.68130139	   -184.42560268	    822.24572302	      8.66218497	      5.23057653	    -45.00000000	     39.63819597	    -45.00000000	    -24.67615515	   2419.92406553	  -2810.37619329	     32.00749721	     64.35914981	    371.70312498	      1.71950946	     18.73956261	     10.84245807	     16.61430592	     38.79356823	    -40.17274252	    -45.00000000	    -42.47503141	   -636.61993455	   1704.89663616	    135.68725052	    163.10961721	    742.40001176	    157.81153756	     -2.43450312	     -9.60617800
      5.64000000	    -39.31745322	     -8.63475095	     14.70663940	   -180.59603344	    819.90851556	      8.55993607	      5.05800627	    -45.00000000	     39.69254008	    -45.00000000	    -24.16769593	   2420.17474425	  -2810.70235290	     31.86149823	     64.54145692	    371.62261130	      1.26441927	     18.56595399	     11.18094274	     16.82730347	     38.94841016	    -40.34074491	    -45.00000000	    -42.16552846	   -636.96024182	   1704.67160110	    135.71550148	    163.23334663	    742.32472915	    157.90596353	     -2.60780980	     -9.73037388
      5.65000000	    -39.42240803	     -8.94166185	     14.76410169	   -176.67095608	    817.48984693	      8.46354871	      5.25123032	    -45.00000000	     39.86086675	    -45.00000000	    -23.94178161	   2420.40879854	  -2811.21249237	     31.75898909	     64.65226304	    371.44475858	      0.97327533	     18.38608645	     11.39272035	     16.53275174	     38.97226817	    -40.37933081	    -45.00000000	    -41.86816698	   -636.97485554	   1704.50949131	    135.42898611	    163.07179379	    742.15108302	    157.65088132	     -2.84454102	     -9.96116533
